Coordinates
version=1
nRows=8
nColumns=63
inDegrees=yes

Units are S.I. units (second, meters, Newtons, ...)
If the header above contains a line with 'inDegrees', this indicates whether rotational values are in degrees (yes) or radians (no).

endheader
time	pelvis_tilt	pelvis_list	pelvis_rotation	pelvis_tx	pelvis_ty	pelvis_tz	hip_flexion_r	hip_adduction_r	hip_rotation_r	knee_angle_r	knee_angle_r_beta	ankle_angle_r	subtalar_angle_r	mtp_angle_r	hip_flexion_l	hip_adduction_l	hip_rotation_l	knee_angle_l	knee_angle_l_beta	ankle_angle_l	subtalar_angle_l	mtp_angle_l	L5_S1_Flex_Ext	L5_S1_Lat_Bending	L5_S1_axial_rotation	L4_L5_Flex_Ext	L4_L5_Lat_Bending	L4_L5_axial_rotation	L3_L4_Flex_Ext	L3_L4_Lat_Bending	L3_L4_axial_rotation	L2_L3_Flex_Ext	L2_L3_Lat_Bending	L2_L3_axial_rotation	L1_L2_Flex_Ext	L1_L2_Lat_Bending	L1_L2_axial_rotation	L1_T12_Flex_Ext	L1_T12_Lat_Bending	L1_T12_axial_rotation	Abs_r3	Abs_r2	Abs_r1	Abs_t1	Abs_t2	neck_flexion	neck_bending	neck_rotation	arm_flex_r	arm_add_r	arm_rot_r	elbow_flex_r	pro_sup_r	wrist_flex_r	wrist_dev_r	arm_flex_l	arm_add_l	arm_rot_l	elbow_flex_l	pro_sup_l	wrist_flex_l	wrist_dev_l
      3.36206897	     -1.82247804	     -0.86849109	     80.70344095	      0.24581364	      0.93876149	      0.52694049	      1.88615816	     -0.50378223	      0.94808074	      4.53900634	      0.07922061	     21.73255581	      8.83512954	      0.00000000	     -0.85483401	     -1.90738785	      3.06495405	      0.57015349	      0.00995106	     16.79425243	    -13.98606200	      0.00000000	     -0.09521423	     -0.04595877	      0.89143186	     -0.17682236	     -0.06112516	      0.94714635	     -0.15642747	     -0.11174415	      0.94714635	     -0.10882035	     -0.11174415	      0.78000287	     -0.08841594	     -0.09371912	      0.72428838	     -0.05440541	     -0.07119013	      0.66857389	     -0.68010576	     -0.51989479	      4.95787655	      0.00000000	      0.00000000	     25.99332688	     -7.45198111	      1.35600087	      8.16240490	    -12.56924763	     58.44541183	     50.70337110	     41.62341627	     -6.27091445	     11.22761601	      7.83380782	    -16.45648325	     58.82909300	     52.49184688	     87.69154887	    -19.10393474	     -5.74487021
      3.37931034	     -1.84774447	     -0.68044666	     81.38930922	      0.24605123	      0.93893919	      0.52636517	      1.42085406	     -0.46092285	      1.67161861	      4.16784807	      0.07274267	     21.55973505	      6.98364358	      0.00000000	     -0.97131419	     -1.90901207	      3.52251115	      0.57756523	      0.01008041	     16.83453601	    -13.86170593	      0.00000000	     -0.08226321	     -0.04462616	      0.53308661	     -0.15277100	     -0.05935279	      0.56640453	     -0.13515022	     -0.10850404	      0.56640453	     -0.09401862	     -0.10850404	      0.46645079	     -0.07638961	     -0.09100166	      0.43313287	     -0.04700520	     -0.06912592	      0.39981496	     -0.58759785	     -0.50482002	      2.96486781	      0.00000000	      0.00000000	     25.98194656	     -7.13415444	      2.51450675	     10.10410727	    -12.56971393	     63.60893460	     49.85630132	     38.86294281	     -6.08336592	      8.49438445	      5.77948948	    -16.43922296	     54.96357258	     53.00677547	     87.94777426	    -19.08854012	     -6.30694775
      3.39655172	     -1.82706491	     -0.42148732	     81.89093382	      0.24624277	      0.93913234	      0.52581771	      0.94066765	     -0.43504071	      1.53486394	      3.89147292	      0.06791902	     21.65024596	      6.71301197	      0.00000000	     -1.19644435	     -1.93130203	      3.77185208	      0.56869986	      0.00992569	     16.91775712	    -13.67457907	      0.00000000	     -0.08289751	     -0.03465550	      0.33437313	     -0.15394896	     -0.04609181	      0.35527145	     -0.13619231	     -0.08426138	      0.35527145	     -0.09474356	     -0.08426138	      0.29257648	     -0.07697862	     -0.07066949	      0.27167816	     -0.04736763	     -0.05368137	      0.25077984	     -0.59212860	     -0.39202993	      1.85968301	      0.00000000	      0.00000000	     25.88734538	     -7.51469504	      2.61891905	     10.96125714	    -12.55834722	     65.81750678	     49.42314301	     39.22891172	     -5.62485419	      7.62755236	      4.74334023	    -16.37118067	     53.07988908	     53.42296214	     87.81273793	    -19.12350013	     -6.02960540
      3.41379310	     -1.82551523	     -0.11352232	     82.31334057	      0.24640951	      0.93937070	      0.52526503	      0.46531690	     -0.43716703	      1.41081527	      3.69198186	      0.06443724	     21.75323797	      6.45458700	      0.00000000	     -1.50058385	     -1.92481671	      4.07629983	      0.54510168	      0.00951382	     16.97964430	    -13.55472871	      0.00000000	     -0.09927314	     -0.01705131	      0.15133828	     -0.18436016	     -0.02267824	      0.16079692	     -0.16309585	     -0.04145855	      0.16079692	     -0.11345928	     -0.04145855	      0.13242099	     -0.09218504	     -0.03477103	      0.12296235	     -0.05672467	     -0.02641248	      0.11350371	     -0.70909814	     -0.19288780	      0.84169811	      0.00000000	      0.00000000	     25.79489011	     -8.00004446	      3.12880764	     11.67211738	    -12.58057470	     67.69232719	     49.08193775	     39.21566846	     -5.12698428	      6.93746599	      3.93544299	    -16.32999188	     51.32780851	     53.95006410	     87.62059033	    -17.94720431	     -4.95031008
      3.43103448	     -1.86832789	     -0.08012743	     82.79076483	      0.24675857	      0.93918336	      0.52466086	      0.30780611	     -0.42315628	      1.51532282	      3.57179872	      0.06233965	     21.89369432	      5.93537788	      0.00000000	     -1.49839583	     -1.91878809	      4.51424653	      0.54602282	      0.00952990	     16.81887914	    -13.77008522	      0.00000000	     -0.07996049	     -0.00766996	     -0.09847478	     -0.14849462	     -0.01020105	     -0.10462945	     -0.13136708	     -0.01864875	     -0.10462945	     -0.09138684	     -0.01864875	     -0.08616543	     -0.07425131	     -0.01564059	     -0.08001076	     -0.04568942	     -0.01188077	     -0.07385608	     -0.57114975	     -0.08676415	     -0.54768718	      0.00000000	      0.00000000	     25.65413630	     -7.58299597	      4.07212346	     12.44168804	    -12.44254997	     70.12833678	     48.75995268	     37.47781051	     -4.84984073	      5.98651283	      2.74167058	    -16.36888877	     48.41796962	     54.71526198	     87.99864879	    -14.72270694	     -3.24912637
      3.44827586	     -1.92484319	     -0.08911532	     82.78180475	      0.24776977	      0.93894632	      0.52441060	      0.30750361	     -0.42594800	      1.51331621	      3.57388831	      0.06237612	     21.89713687	      5.93204714	      0.00000000	     -1.50310911	     -1.91108547	      4.51673866	      0.57125878	      0.00997035	     16.80708512	    -13.76661798	      0.00000000	     -0.08235223	     -0.00261571	     -0.10247609	     -0.15293633	     -0.00347889	     -0.10888085	     -0.13529648	     -0.00635983	     -0.10888085	     -0.09412037	     -0.00635983	     -0.08966658	     -0.07647228	     -0.00533395	     -0.08326183	     -0.04705607	     -0.00405173	     -0.07685707	     -0.58823376	     -0.02958938	     -0.56994129	      0.00000000	      0.00000000	     25.65226342	     -7.58667532	      4.06841612	     12.36572096	    -12.45469434	     70.17361514	     48.75302729	     37.47682097	     -4.84563719	      6.00110365	      2.77539030	    -16.38888537	     48.40522409	     54.71959416	     87.99547143	    -14.71243402	     -3.23907703
      3.46551724	     -1.87696677	     -0.15687327	     83.65151014	      0.24753097	      0.93857612	      0.52348125	      0.18268289	     -0.31960821	      0.87337031	      3.54782153	      0.06192117	     21.79276084	      5.45150495	      0.00000000	     -1.43480195	     -2.03078134	      5.75526833	      0.52499721	      0.00916293	     16.33513127	    -14.19648240	      0.00000000	     -0.06855387	      0.02531686	     -0.38655528	     -0.12731140	      0.03367143	     -0.41071498	     -0.11262716	      0.06155542	     -0.41071498	     -0.07835022	      0.06155542	     -0.33823587	     -0.06365913	      0.05162614	     -0.31407616	     -0.03917168	      0.03921582	     -0.28991646	     -0.48967347	      0.28638940	     -2.14990448	      0.00000000	      0.00000000	     25.57677550	     -7.84745326	      4.92702815	     13.25660058	    -12.50878483	     72.64317377	     48.70746284	     35.47480196	     -4.90044659	      6.83616039	      2.10300884	    -16.41641077	     46.20334179	     55.61891735	     88.16323950	    -10.02322179	      0.28979724
      3.48275862	     -1.95541304	     -0.39235713	     83.71393522	      0.24847848	      0.93799463	      0.52312418	      0.42122986	     -0.31959247	      0.61029137	      3.75599059	      0.06555440	     21.57805385	      5.32737064	      0.00000000	     -1.23276749	     -2.03731737	      5.95645374	      0.52560576	      0.00917355	     16.06715082	    -14.25358836	      0.00000000	     -0.04815093	      0.02869063	     -0.36879511	     -0.08942109	      0.03815854	     -0.39184480	     -0.07910716	      0.06975840	     -0.39184480	     -0.05503169	      0.06975840	     -0.32269572	     -0.04471295	      0.05850594	     -0.29964603	     -0.02751344	      0.04444179	     -0.27659633	     -0.34393726	      0.32455416	     -2.05112776	      0.00000000	      0.00000000	     25.58016106	     -8.02601234	      5.01381219	     13.43597343	    -12.58535817	     73.33539774	     48.66000682	     35.16946075	     -5.04514292	      7.33172166	      2.30765854	    -16.42044602	     46.41696509	     55.60895016	     88.25474359	     -9.44748483	      0.58322689
